<?xml version="1.0" encoding="UTF-8"?>
<svg version="1.1" xmlns="http://www.w3.org/2000/svg" width="800" height="600">
<path d="M0 0 C264 0 528 0 800 0 C800 198 800 396 800 600 C536 600 272 600 0 600 C0 402 0 204 0 0 Z " fill="#00BEFA" transform="translate(0,0)"/>
<path d="M0 0 C77.43396226 0 77.43396226 0 90.1875 12.0703125 C99.42782842 21.82021786 101.50225179 31.59353546 101.27734375 44.65625 C100.66164175 58.79595373 91.67108672 67.71575675 82 77 C83.66670502 81.77539079 86.22171762 85.85258496 88.875 90.125 C89.35678711 90.90689697 89.83857422 91.68879395 90.33496094 92.49438477 C96.56455826 102.57786853 102.85663186 112.62987242 109.3125 122.5703125 C109.951875 123.55773437 110.59125 124.54515625 111.25 125.5625 C111.79140625 126.38878906 112.3328125 127.21507812 112.890625 128.06640625 C114 130 114 130 114 132 C90.73225827 135.45943758 90.73225827 135.45943758 83.50927734 130.17919922 C79.11554195 125.11292093 76.3168639 119.151689 73.5078125 113.10546875 C71.07745531 108.09994034 68.05833403 103.49330319 65.0625 98.8125 C64.05042889 97.1750007 63.04122127 95.53572747 62.03515625 93.89453125 C61.53330811 93.11005615 61.03145996 92.32558105 60.5144043 91.51733398 C59 89 59 89 57.57348633 85.98461914 C55.95541192 82.82823994 54.55032123 80.47398584 52 78 C47.14467052 76.52897052 42.6000207 76.63977339 37.5625 76.8125 C33.086875 76.874375 28.61125 76.93625 24 77 C24 95.15 24 113.3 24 132 C16.08 132 8.16 132 0 132 C0 88.44 0 44.88 0 0 Z " fill="#FCFEFE" transform="translate(617,221)"/>
<path d="M0 0 C10.23 0 20.46 0 31 0 C41.1359688 10.41558173 41.1359688 10.41558173 43.66015625 15.14453125 C46.72728134 20.60960675 50.20650157 25.52199348 54 30.5 C55.14821284 32.06075224 56.2940289 33.62327044 57.4375 35.1875 C61.88457669 41.22281836 66.44877818 47.16791864 71.00610352 53.12011719 C76.33620035 60.09490356 81.56473485 67.14019046 86.74804688 74.22460938 C87.29396484 74.97033203 87.83988281 75.71605469 88.40234375 76.484375 C88.88179443 77.14147461 89.36124512 77.79857422 89.85522461 78.47558594 C90.91686622 79.96380382 90.91686622 79.96380382 92 81 C92.33 54.27 92.66 27.54 93 0 C100.92 0 108.84 0 117 0 C117.11292112 16.06398551 117.20500345 32.12763171 117.25906086 48.19190407 C117.28482916 55.65102993 117.31995291 63.10989147 117.37719727 70.56884766 C117.42707493 77.07102779 117.45930102 83.57301647 117.47044247 90.07538259 C117.47695405 93.5176046 117.49222794 96.95927896 117.52865028 100.40132523 C117.56900558 104.24633198 117.56994661 108.09080576 117.56762695 111.93603516 C117.58560333 113.07395508 117.60357971 114.211875 117.62210083 115.38427734 C117.5658134 123.99613 117.5658134 123.99613 114.58952332 127.6914978 C111.2488623 130.66962248 109.56953077 131.20418621 105.1875 131.375 C103.90939453 131.44847656 103.90939453 131.44847656 102.60546875 131.5234375 C96.93892238 130.38503088 93.57168174 124.37994825 90.1875 120 C89.72448486 119.40533936 89.26146973 118.81067871 88.78442383 118.19799805 C87.1839149 116.13633875 85.59103111 114.06898199 84 112 C83.3915625 111.20932129 82.783125 110.41864258 82.15625 109.60400391 C74.37141779 99.47077347 66.69583442 89.26602096 59.14916992 78.9543457 C54.6389154 72.81366267 49.98194261 66.79919698 45.27807617 60.80615234 C39.06410487 52.86105207 33.11181688 44.72638388 27.17651367 36.57202148 C26.09017478 35.04269791 26.09017478 35.04269791 25 34 C24.67 66.34 24.34 98.68 24 132 C16.08 132 8.16 132 0 132 C0 88.44 0 44.88 0 0 Z " fill="#FDFEFE" transform="translate(228,221)"/>
<path d="M0 0 C4.87423148 2.94482127 6.76846937 7.55543803 9.17578125 12.5390625 C9.68625 13.55556885 10.19671875 14.5720752 10.72265625 15.61938477 C12.37767866 18.93519011 13.99953364 22.26549123 15.61328125 25.6015625 C16.40001221 27.22191406 16.40001221 27.22191406 17.20263672 28.875 C19.42252459 33.45483605 21.63434313 38.03838261 23.83154297 42.62915039 C29.02682913 53.47607988 34.40381378 64.22882826 39.80078125 74.9765625 C46.51113232 88.34328644 53.1297194 101.73937498 59.49169922 115.27636719 C61.14721581 118.70848299 62.91039423 122.0849119 64.67993164 125.45947266 C65.61328125 127.6015625 65.61328125 127.6015625 65.61328125 130.6015625 C56.70328125 130.6015625 47.79328125 130.6015625 38.61328125 130.6015625 C37.29328125 127.3015625 35.97328125 124.0015625 34.61328125 120.6015625 C33.26993355 117.76685119 31.9079846 114.96450402 30.48730469 112.17016602 C30.09657776 111.39323898 29.70585083 110.61631195 29.30328369 109.81584167 C28.46481228 108.14975785 27.62451371 106.48459249 26.78252411 104.82028389 C25.4506445 102.18694806 24.12430423 99.55088747 22.79937744 96.91404724 C19.03503336 89.42492338 15.26028035 81.94105909 11.48339844 74.45825195 C9.16553075 69.86513077 6.85345616 65.26913077 4.54480743 60.67136955 C3.66516257 58.92265934 2.78318707 57.1751195 1.89885712 55.42877388 C0.66773629 52.9975883 -0.55607354 50.56285324 -1.77832031 48.12719727 C-2.14606567 47.40563446 -2.51381104 46.68407166 -2.8927002 45.94064331 C-5.38671875 40.94330469 -5.38671875 40.94330469 -5.38671875 37.6015625 C-6.04671875 37.6015625 -6.70671875 37.6015625 -7.38671875 37.6015625 C-7.76589951 38.84839058 -7.76589951 38.84839058 -8.15274048 40.1204071 C-9.53056435 44.0073629 -11.27149619 47.62867294 -13.13037109 51.30004883 C-13.50462723 52.04724686 -13.87888336 52.79444489 -14.26448059 53.56428528 C-15.49686361 56.02258542 -16.73480635 58.47804254 -17.97265625 60.93359375 C-18.83501386 62.65203177 -19.69695605 64.37067832 -20.5585022 66.08952332 C-22.82554366 70.61032319 -25.09702628 75.12887532 -27.36981201 79.64678955 C-31.00098905 86.86599304 -34.6268376 94.08786753 -38.24998856 101.31110191 C-39.5109452 103.8228665 -40.77465784 106.33322994 -42.03866577 108.84346008 C-42.82063182 110.40055628 -43.60250701 111.95769811 -44.38427734 113.51489258 C-44.90501076 114.54625336 -44.90501076 114.54625336 -45.43626404 115.59844971 C-47.91650007 120.54755649 -50.13175192 125.52788714 -52.38671875 130.6015625 C-61.29671875 130.6015625 -70.20671875 130.6015625 -79.38671875 130.6015625 C-77.797029 125.83249324 -76.00394571 121.49719561 -73.80078125 117.015625 C-73.43584061 116.26637756 -73.07089996 115.51713013 -72.69490051 114.74517822 C-71.47127938 112.23694342 -70.24169462 109.73168657 -69.01171875 107.2265625 C-68.1367566 105.43768405 -67.26183918 103.64878373 -66.38696289 101.85986328 C-61.04779325 90.9622446 -55.6479693 80.09517549 -50.21875 69.2421875 C-49.91312386 68.6312109 -49.60749771 68.0202343 -49.29261017 67.39074326 C-45.96701483 60.74388588 -42.63563666 54.09997349 -39.29736328 47.45947266 C-38.15898905 45.19182746 -37.02080239 42.9240881 -35.8828125 40.65625 C-35.33284607 39.56249054 -34.78287964 38.46873108 -34.21624756 37.34182739 C-31.50142271 31.92001465 -28.84201173 26.4801823 -26.27783203 20.98535156 C-25.78477066 19.932117 -25.29170929 18.87888245 -24.78370667 17.79373169 C-23.86353847 15.81728 -22.95264904 13.8364698 -22.05308533 11.85055542 C-19.73597707 6.87034833 -17.68136062 3.08756765 -13.38671875 -0.3984375 C-8.48270969 -2.03310719 -4.80135977 -1.98256839 0 0 Z " fill="#FBFEFE" transform="translate(148.38671875,222.3984375)"/>
<path d="M0 0 C30.69 0 61.38 0 93 0 C93 7.59 93 15.18 93 23 C69.9 23 46.8 23 23 23 C23 51.05 23 79.1 23 108 C46.1 108 69.2 108 93 108 C93 115.92 93 123.84 93 132 C82.16866864 132.09046697 71.33758933 132.1638117 60.50596523 132.20724869 C55.47608306 132.22809913 50.4464734 132.25637038 45.41674805 132.30175781 C40.56028131 132.34530618 35.70407624 132.36915624 30.84742928 132.37950897 C28.99710027 132.3868842 27.14678515 132.4012864 25.29656792 132.42292023 C22.69927199 132.45207403 20.10304918 132.45595105 17.50561523 132.45410156 C16.74532013 132.46848267 15.98502502 132.48286377 15.20169067 132.49768066 C9.72213477 132.45562356 6.4746818 131.21362889 2 128 C-0.00813147 124.9075169 -0.24789097 122.45813841 -0.24050903 118.8114624 C-0.24325836 117.76260864 -0.24600769 116.71375488 -0.24884033 115.63311768 C-0.24164978 114.4880072 -0.23445923 113.34289673 -0.22705078 112.16308594 C-0.22734283 110.95305908 -0.22763489 109.74303223 -0.22793579 108.49633789 C-0.22678161 105.18253296 -0.21675471 101.86897756 -0.20278788 98.55521679 C-0.19028104 95.09054996 -0.18911005 91.62587977 -0.18673706 88.16119385 C-0.18052215 81.60225789 -0.1641112 75.04338864 -0.14403808 68.48448205 C-0.11948589 60.28393834 -0.10854153 52.08338379 -0.09765625 43.8828125 C-0.07817966 29.25515637 -0.03811488 14.6276458 0 0 Z " fill="#FCFEFE" transform="translate(505,221)"/>
<path d="M0 0 C7.92 0 15.84 0 24 0 C24.33 26.73 24.66 53.46 25 81 C33.90508191 69.31207999 42.75391562 57.65375143 51.4375 45.8125 C55.88457669 39.77718164 60.44877818 33.83208136 65.00610352 27.87988281 C70.33620035 20.90509644 75.56473485 13.85980954 80.74804688 6.77539062 C81.29396484 6.02966797 81.83988281 5.28394531 82.40234375 4.515625 C82.88179443 3.85852539 83.36124512 3.20142578 83.85522461 2.52441406 C85 1 85 1 86 0 C88.21855264 -0.08783542 90.43988496 -0.10694609 92.66015625 -0.09765625 C93.65685585 -0.09553383 93.65685585 -0.09553383 94.6736908 -0.09336853 C96.80333899 -0.08775518 98.93288339 -0.07520054 101.0625 -0.0625 C102.50325369 -0.05748671 103.94400903 -0.05292351 105.38476562 -0.04882812 C108.92321102 -0.03778145 112.46159539 -0.02050792 116 0 C114.64913667 2.86679674 113.11382476 5.36480222 111.234375 7.9140625 C110.40486328 9.04134766 110.40486328 9.04134766 109.55859375 10.19140625 C108.66333984 11.39603516 108.66333984 11.39603516 107.75 12.625 C106.81607422 13.88763672 106.81607422 13.88763672 105.86328125 15.17578125 C101.08886678 21.60250817 96.19419664 27.92824738 91.25292969 34.22705078 C87.06734171 39.5797066 83.00916735 45.014242 79 50.5 C74.43317338 56.74880518 69.77745029 62.91070065 65 69 C59.59583226 75.88976659 54.36064797 82.88649134 49.18847656 89.95166016 C43.73120665 97.39603818 38.13667497 104.72901565 32.50195312 112.03955078 C31.03565478 113.95346101 29.58570897 115.87863286 28.140625 117.80859375 C27.69299805 118.40236816 27.24537109 118.99614258 26.78417969 119.60791016 C25.59206285 121.19029795 24.40518437 122.77662843 23.21875 124.36328125 C20.47656006 127.6220457 17.9870102 130.49892786 13.75390625 131.56640625 C9.60725941 131.55901472 6.81701702 131.325128 3.5 128.6875 C0.15461944 125.0912159 -0.12507083 122.69448654 -0.12025452 117.96968079 C-0.12162918 116.93061584 -0.12300385 115.8915509 -0.12442017 114.82099915 C-0.12082489 113.68164413 -0.11722961 112.54228912 -0.11352539 111.3684082 C-0.11367142 110.16828094 -0.11381744 108.96815369 -0.1139679 107.73165894 C-0.1133902 104.44059468 -0.10837154 101.149593 -0.10139394 97.85853982 C-0.0951468 94.41921946 -0.09455552 90.97989828 -0.09336853 87.54057312 C-0.09025924 81.02766859 -0.08205125 74.51478083 -0.07201904 68.00188369 C-0.06084545 60.5872054 -0.05534431 53.17252632 -0.05032361 45.75784171 C-0.03986831 30.50521644 -0.0215278 15.25261427 0 0 Z " fill="#FDFEFE" transform="translate(369,221)"/>
<path d="M0 0 C3.8924024 3.46190628 6.25634209 7.44138287 8.875 11.875 C13.13133512 18.96064456 17.48619961 25.97264674 21.9375 32.9375 C22.52297607 33.85515137 23.10845215 34.77280273 23.71166992 35.71826172 C25.47367853 38.47933236 27.23678765 41.23969795 29 44 C31.23353316 47.49724271 33.46242535 50.99737052 35.6875 54.5 C36.42697876 55.65616821 36.42697876 55.65616821 37.18139648 56.83569336 C37.87084351 57.9224939 37.87084351 57.9224939 38.57421875 59.03125 C39.17109497 59.96807617 39.17109497 59.96807617 39.7800293 60.92382812 C41.32396017 63.55132225 42.65950987 66.26416716 44 69 C34.46013463 70.63446599 24.37557529 72.00328559 15 69 C8.48646854 63.73488565 5.09838721 55.87749205 1.61941528 48.42132568 C-1.35905555 42.04212951 -5.1272253 36.24657879 -9 30.375 C-10.16921837 28.55111244 -11.3361501 26.72575543 -12.5 24.8984375 C-13.33303129 23.59876469 -14.16623618 22.299203 -15 21 C-11.51630059 15.69395463 -7.96148704 10.49468746 -4.125 5.4375 C-3.34382813 4.40496094 -2.56265625 3.37242187 -1.7578125 2.30859375 C-1.17773438 1.54675781 -0.59765625 0.78492188 0 0 Z " fill="#FBFEFE" transform="translate(450,283)"/>
<path d="M0 0 C5.6933674 -0.09215882 11.38411591 -0.17169619 17.07763672 -0.21972656 C19.01164552 -0.23976141 20.94559435 -0.26699729 22.87939453 -0.30175781 C25.66974743 -0.35063571 28.45929501 -0.37305019 31.25 -0.390625 C32.10553467 -0.41127014 32.96106934 -0.43191528 33.8425293 -0.45318604 C39.69911603 -0.45534321 44.11569283 0.68212834 49 4 C52.99302868 8.30018473 54.30457264 10.98448811 54.21875 16.90625 C53.68512332 22.01381968 50.86818331 25.81443727 47 29 C42.25052895 31.56941409 37.57617959 31.2560295 32.32421875 31.1953125 C30.93648003 31.19106766 30.93648003 31.19106766 29.52070618 31.18673706 C26.57617058 31.17557392 23.63194312 31.15047637 20.6875 31.125 C18.68685336 31.11496521 16.68620194 31.10584023 14.68554688 31.09765625 C9.79015139 31.07735183 4.89541917 31.03819573 0 31 C0 20.77 0 10.54 0 0 Z " fill="#03BEFA" transform="translate(641,244)"/>
<path d="M0 0 C0.33 0 0.66 0 1 0 C1.36520833 11.11856481 0.23223906 21.96485916 -1 33 C4.28 33 9.56 33 15 33 C11.90923707 37.83427022 8.74182597 42.40845831 5.0625 46.8125 C-0.11620521 53.014595 -4.90095821 59.49628811 -9.68334961 66.00708008 C-10.60579468 67.252677 -10.60579468 67.252677 -11.546875 68.5234375 C-12.09182617 69.26513184 -12.63677734 70.00682617 -13.19824219 70.77099609 C-15.29830021 73.36903536 -17.60604644 75.67308532 -20 78 C-19.73772165 73.96121876 -19.47106484 69.92275224 -19.20043945 65.88452148 C-19.109081 64.5122043 -19.0188959 63.13980846 -18.92993164 61.76733398 C-18.80146718 59.78869421 -18.66836027 57.8103576 -18.53515625 55.83203125 C-18.456604 54.64327393 -18.37805176 53.4545166 -18.29711914 52.22973633 C-18 49 -18 49 -17 44 C-22.28 44 -27.56 44 -33 44 C-31.56649511 41.13299022 -30.42674946 39.08377432 -28.5234375 36.62890625 C-28.02497314 35.98187744 -27.52650879 35.33484863 -27.01293945 34.66821289 C-26.47241943 33.97332764 -25.93189941 33.27844238 -25.375 32.5625 C-24.20926099 31.0523723 -23.04391562 29.54194066 -21.87890625 28.03125 C-20.94522217 26.82275391 -20.94522217 26.82275391 -19.99267578 25.58984375 C-17.8681368 22.82861985 -15.75852592 20.05649868 -13.65234375 17.28125 C-12.93062988 16.33048584 -12.20891602 15.37972168 -11.46533203 14.40014648 C-10.04490969 12.52788873 -8.62529566 10.65501743 -7.20654297 8.78149414 C-6.5570166 7.92676514 -5.90749023 7.07203613 -5.23828125 6.19140625 C-4.66118408 5.43029541 -4.08408691 4.66918457 -3.48950195 3.88500977 C-2 2 -2 2 0 0 Z " fill="#F8FDFE" transform="translate(149,301)"/>
<path d="M0 0 C15.51 0 31.02 0 47 0 C47 7.59 47 15.18 47 23 C31.49 23 15.98 23 0 23 C0 15.41 0 7.82 0 0 Z " fill="#FEFEFE" transform="translate(539,275)"/>
</svg>
