<?xml version="1.0" encoding="UTF-8"?>
<svg version="1.1" xmlns="http://www.w3.org/2000/svg" width="155" height="30">
<path d="M0 0 C1.65 0 3.3 0 5 0 C5 1.32 5 2.64 5 4 C6.65 4 8.3 4 10 4 C10.33 7.63 10.66 11.26 11 15 C11.99 15.33 12.98 15.66 14 16 C17.2117961 14.36221601 17.2117961 14.36221601 17.51171875 11.6171875 C17.56972656 10.71226563 17.62773437 9.80734375 17.6875 8.875 C17.75324219 7.96492187 17.81898437 7.05484375 17.88671875 6.1171875 C17.92410156 5.41851562 17.96148438 4.71984375 18 4 C19.65 4 21.3 4 23 4 C23 7.63 23 11.26 23 15 C28.64713178 16.10861255 28.64713178 16.10861255 34 15 C33.36191406 14.79503906 32.72382812 14.59007812 32.06640625 14.37890625 C31.24011719 14.10949219 30.41382813 13.84007812 29.5625 13.5625 C28.73878906 13.29566406 27.91507813 13.02882813 27.06640625 12.75390625 C25 12 25 12 24 11 C23.75 8.5625 23.75 8.5625 24 6 C27.09780948 3.93479368 27.9540481 3.70522976 31.5 3.6875 C32.2734375 3.67074219 33.046875 3.65398438 33.84375 3.63671875 C36.50052926 4.0843283 37.38872529 4.87745543 39 7 C39 7.66 39 8.32 39 9 C36.03 8.67 33.06 8.34 30 8 C30 8.33 30 8.66 30 9 C31.11375 9.28875 32.2275 9.5775 33.375 9.875 C37 11 37 11 39 13 C38.67028521 16.29714793 38.3773161 17.6226839 36 20 C33.6875 20.265625 33.6875 20.265625 31 20.25 C29.6696875 20.25773437 29.6696875 20.25773437 28.3125 20.265625 C26 20 26 20 24 18 C23.67 18.66 23.34 19.32 23 20 C20.72975032 20.08097324 18.45867925 20.13917704 16.1875 20.1875 C14.29064453 20.23970703 14.29064453 20.23970703 12.35546875 20.29296875 C9 20 9 20 7.05078125 18.48828125 C6.70402344 17.99714844 6.35726563 17.50601562 6 17 C5.690625 18.134375 5.38125 19.26875 5.0625 20.4375 C4 24 4 24 3 25 C1.00041636 25.04080783 -1.00045254 25.04254356 -3 25 C-3 24.01 -3 23.02 -3 22 C-2.01 22 -1.02 22 0 22 C0 14.74 0 7.48 0 0 Z " fill="#000000" transform="translate(3,3)"/>
<path d="M0 0 C2.29695658 1.12662564 3.98297258 2.38637806 6 4 C6.45375 3.525625 6.9075 3.05125 7.375 2.5625 C9.84277774 0.18963679 10.86139086 0.00770051 14.375 -0.1875 C17.70738978 -0.01513501 19.32694535 0.11896154 22 2 C24.34549674 5.51824511 24.57991403 6.85775694 24 11 C21.58602538 14.19496641 19.86057462 15.70703843 16.0625 17 C12.31096851 17 10.26260888 15.773157 7 14 C3.08724445 13.62676173 3.08724445 13.62676173 0.6875 15.5625 C-2.99224622 17.53073635 -5.02712025 17.08351266 -9 16 C-11.4375 14.4375 -11.4375 14.4375 -13 12 C-13.61131562 9.19140844 -13.64927916 6.80396664 -13 4 C-9.52823593 -0.33970509 -5.30930899 -1.07635114 0 0 Z M-9 6 C-8.67801034 9.09926819 -8.67801034 9.09926819 -8 12 C-5.28642465 12.87134188 -5.28642465 12.87134188 -2 13 C1.34752558 11.18621008 1.34752558 11.18621008 4 9 C0.65564612 4.998933 0.65564612 4.998933 -4.1875 3.5625 C-7.13036002 3.73701563 -7.13036002 3.73701563 -9 6 Z M7 9 C10.9512105 12.12986722 10.9512105 12.12986722 15.75 13.0625 C18.24484387 12.16421187 18.24484387 12.16421187 19.3125 9.4375 C19.539375 8.633125 19.76625 7.82875 20 7 C18.29669958 4.84846263 17.34555656 4.07274875 14.625 3.5 C10.92491172 4.20477872 9.42600843 6.22741893 7 9 Z " fill="#000000" transform="translate(80,7)"/>
<path d="M0 0 C1.32 0 2.64 0 4 0 C4 1.65 4 3.3 4 5 C5.65 5 7.3 5 9 5 C9.144375 4.360625 9.28875 3.72125 9.4375 3.0625 C10 1 10 1 11 0 C14.33618231 -0.14257189 17.65975606 -0.04228157 21 0 C21 5.94 21 11.88 21 18 C21.99 18 22.98 18 24 18 C24 18.99 24 19.98 24 21 C21.6568787 20.74438677 19.32156597 20.40729228 17 20 C15.73762269 17.47524538 15.90143596 15.68799534 15.9375 12.875 C15.94652344 11.96492187 15.95554687 11.05484375 15.96484375 10.1171875 C15.97644531 9.41851562 15.98804687 8.71984375 16 8 C15.01 8 14.02 8 13 8 C13 12.29 13 16.58 13 21 C11.68 21 10.36 21 9 21 C9 16.71 9 12.42 9 8 C7.35 8 5.7 8 4 8 C4.33 10.97 4.66 13.94 5 17 C5.99 17.33 6.98 17.66 8 18 C8 18.99 8 19.98 8 21 C5.125 21.125 5.125 21.125 2 21 C-0.8045719 18.1954281 -0.4375664 16.10039489 -0.6875 12.1875 C-0.77386719 10.96417969 -0.86023437 9.74085937 -0.94921875 8.48046875 C-0.99369103 5.43240717 -0.74457731 2.93912095 0 0 Z M14 3 C13.67 3.66 13.34 4.32 13 5 C13.99 5 14.98 5 16 5 C16 4.34 16 3.68 16 3 C15.34 3 14.68 3 14 3 Z " fill="#000000" transform="translate(43,2)"/>
<path d="M0 0 C1.32 0 2.64 0 4 0 C4.99 2.64 5.98 5.28 7 8 C8.32 5.36 9.64 2.72 11 0 C12.65 0 14.3 0 16 0 C16.99 2.64 17.98 5.28 19 8 C19.99 5.36 20.98 2.72 22 0 C23.32 0 24.64 0 26 0 C25.39891424 5.65020618 23.92471317 10.66164461 22 16 C20.35 16 18.7 16 17 16 C15.68 13.03 14.36 10.06 13 7 C12.01 9.97 11.02 12.94 10 16 C8.35 16 6.7 16 5 16 C4.16280617 13.70967689 3.3301071 11.41789043 2.5 9.125 C2.14228516 8.14853516 2.14228516 8.14853516 1.77734375 7.15234375 C0 2.2265625 0 2.2265625 0 0 Z " fill="#000000" transform="translate(103,7)"/>
</svg>
