<?xml version="1.0" encoding="UTF-8"?>
<svg version="1.1" xmlns="http://www.w3.org/2000/svg" width="1283" height="406">
<path d="M0 0 C423.39 0 846.78 0 1283 0 C1283 133.98 1283 267.96 1283 406 C859.61 406 436.22 406 0 406 C0 272.02 0 138.04 0 0 Z " fill="#EAE3D5" transform="translate(0,0)"/>
<path d="M0 0 C5.44251588 4.50616906 7.93166835 10.29500506 10.125 16.875 C10.9040417 28.84159136 10.68798691 38.62233073 2.75 48.25 C-4.52186663 55.87472092 -12.91815088 58.87866792 -23.375 59.3125 C-33.1544643 59.01869635 -42.24874818 54.84854408 -49 47.8125 C-55.065189 40.27889683 -56.5757893 31.7950458 -56.25390625 22.3046875 C-55.24083383 13.13481545 -51.75948824 6.03185941 -44.875 -0.125 C-31.383096 -10.53607553 -13.6899597 -9.54012019 0 0 Z " fill="#063C42" transform="translate(775.875,180.125)"/>
<path d="M0 0 C17 0 17 0 20.04296875 3.03125 C20.72545592 4.6753083 21.37238045 6.33422387 22 8 C22.95540631 9.79710386 23.91297936 11.59326449 24.8989563 13.3737793 C25.99745115 15.36033314 27.06610377 17.36030417 28.12695312 19.3671875 C28.48539307 20.04491211 28.84383301 20.72263672 29.21313477 21.42089844 C29.57592529 22.10700195 29.93871582 22.79310547 30.3125 23.5 C31.06027946 24.90899612 31.80832419 26.31785149 32.55664062 27.7265625 C34.37415665 31.14942634 36.18807022 34.57417598 38 38 C45.04012374 25.35526582 52.03459556 12.68604078 59 0 C64.61 0 70.22 0 76 0 C76 21.12 76 42.24 76 64 C71.38 64 66.76 64 62 64 C61.67 51.79 61.34 39.58 61 27 C56.8527642 35.04528153 56.8527642 35.04528153 52.71362305 43.09472656 C52.19324463 44.09987305 51.67286621 45.10501953 51.13671875 46.140625 C50.60780029 47.16704102 50.07888184 48.19345703 49.53393555 49.25097656 C48 52 48 52 45 56 C40.38 56 35.76 56 31 56 C26.05 46.43 21.1 36.86 16 27 C15.67 39.21 15.34 51.42 15 64 C10.05 64 5.1 64 0 64 C0 42.88 0 21.76 0 0 Z " fill="#063C41" transform="translate(403,174)"/>
<path d="M0 0 C0.33 0 0.66 0 1 0 C1 33.66 1 67.32 1 102 C-12.53 102 -26.06 102 -40 102 C-40.144375 95.6475 -40.28875 89.295 -40.4375 82.75 C-40.50122803 80.7709668 -40.56495605 78.79193359 -40.63061523 76.75292969 C-40.84078652 65.8838219 -39.70800054 58.90465318 -33 50 C-31.81218404 48.24057579 -30.65209253 46.46446024 -29.4907074 44.6875 C-28.23312197 42.77115579 -26.95553901 40.86966188 -25.671875 38.97070312 C-22.91382112 34.88287327 -20.20289109 30.76507369 -17.5 26.640625 C-16.81997925 25.60379578 -16.81997925 25.60379578 -16.1262207 24.54602051 C-14.75032668 22.44766585 -13.37512923 20.34885591 -12 18.25 C-10.58998178 16.09901021 -9.17980177 13.94812662 -7.76953125 11.79730225 C-6.9034642 10.4763357 -6.03756932 9.15525626 -5.171875 7.83404541 C-3.45653322 5.21677792 -1.73583269 2.60374904 0 0 Z " fill="#043B43" transform="translate(339,152)"/>
<path d="M0 0 C3.92610667 3.92610667 6.75292432 7.39018835 9.625 12 C10.57672479 13.5008888 11.52997735 15.00080942 12.484375 16.5 C13.29551758 17.77617187 13.29551758 17.77617187 14.12304688 19.078125 C16.31199531 22.48568676 18.53553076 25.8692821 20.765625 29.25 C21.18447968 29.88566895 21.60333435 30.52133789 22.03488159 31.17626953 C23.73135312 33.75054456 25.42799054 36.32469107 27.12969971 38.89550781 C41.16332781 60.10688448 41.16332781 60.10688448 41.09765625 70.5078125 C41.09664917 71.25281006 41.09564209 71.99780762 41.09460449 72.76538086 C41.08936714 75.5519362 41.07540589 78.33846962 41.0625 81.125 C41.041875 87.35375 41.02125 93.5825 41 100 C27.47 100 13.94 100 0 100 C0 67 0 34 0 0 Z " fill="#033A41" transform="translate(233,154)"/>
<path d="M0 0 C8.1365625 -0.0928125 8.1365625 -0.0928125 16.4375 -0.1875 C18.13060303 -0.21481201 19.82370605 -0.24212402 21.56811523 -0.27026367 C30.50622567 -0.35441971 38.07015861 -0.10794348 45.875 4.8125 C49.98822375 9.04670092 51.19334812 12.6792419 51.375 18.5 C51.20311248 23.78554123 50.38113861 27.48885669 46.640625 31.43359375 C43.52287897 34.2700998 41.08799921 35.35562046 37 36 C38.53990258 38.48027787 40.08163102 40.9593798 41.625 43.4375 C42.0792334 44.16799561 42.5334668 44.89849121 43.00146484 45.65112305 C45.8957988 50.28792219 48.87022951 54.84515696 52.0390625 59.30078125 C53 61 53 61 53 64 C47.26047105 65.43835653 41.55195086 66.57308215 36 64 C30.65303695 58.54041886 22 46.93347672 22 39 C19.69 39 17.38 39 15 39 C15 47.25 15 55.5 15 64 C10.05 64 5.1 64 0 64 C0 42.88 0 21.76 0 0 Z " fill="#063C43" transform="translate(650,174)"/>
<path d="M0 0 C5.61 0 11.22 0 17 0 C20.2527758 3.2527758 21.1534275 4.95655669 23 9 C24.74928345 11.99752681 26.60078437 14.93048263 28.4375 17.875 C29.33346724 19.35069159 30.22799786 20.82725638 31.12109375 22.3046875 C34.3524108 27.57475954 37.68112493 32.78462489 41 38 C41.33 25.46 41.66 12.92 42 0 C46.62 0 51.24 0 56 0 C56 21.12 56 42.24 56 64 C39 64 39 64 35.3203125 60.66015625 C34.15185547 58.4609375 34.15185547 58.4609375 33.125 56.0625 C32.27966826 54.41610165 31.43060174 52.77161642 30.578125 51.12890625 C30.16369141 50.28215332 29.74925781 49.43540039 29.32226562 48.56298828 C27.14560364 44.34389715 24.50838041 40.44408371 21.875 36.5 C17.14010547 29.28021094 17.14010547 29.28021094 16 27 C15.67 39.21 15.34 51.42 15 64 C10.05 64 5.1 64 0 64 C0 42.88 0 21.76 0 0 Z " fill="#053C41" transform="translate(995,174)"/>
<path d="M0 0 C7.858125 -0.1546875 7.858125 -0.1546875 15.875 -0.3125 C17.50679199 -0.35802002 19.13858398 -0.40354004 20.81982422 -0.45043945 C29.95721334 -0.53721162 37.60714746 0.10214359 44.66772461 6.51464844 C49.28414613 11.63772081 49.3036827 16.64255541 49.20703125 23.25 C48.71307757 29.811196 45.87938269 33.59291742 41.109375 37.73828125 C35.39599211 41.15573064 29.49495454 41.26717455 23.0625 41.125 C19.0715625 41.063125 19.0715625 41.063125 15 41 C15 48.59 15 56.18 15 64 C10.05 64 5.1 64 0 64 C0 42.88 0 21.76 0 0 Z " fill="#073D43" transform="translate(580,174)"/>
<path d="M0 0 C15.18 0 30.36 0 46 0 C46 4.29 46 8.58 46 13 C35.77 13 25.54 13 15 13 C15 16.96 15 20.92 15 25 C24.24 25 33.48 25 43 25 C43 29.29 43 33.58 43 38 C33.76 38 24.52 38 15 38 C15 42.29 15 46.58 15 51 C25.23 51 35.46 51 46 51 C46 54.96 46 58.92 46 63 C30.82 63 15.64 63 0 63 C0 42.21 0 21.42 0 0 Z " fill="#063D43" transform="translate(875,174)"/>
<path d="M0 0 C5.61 0 11.22 0 17 0 C20.96 7.59 24.92 15.18 29 23 C31.1838794 20.08816081 32.83057099 17.62435706 34.48046875 14.453125 C34.92197266 13.60878906 35.36347656 12.76445312 35.81835938 11.89453125 C36.27017578 11.02183594 36.72199219 10.14914063 37.1875 9.25 C37.88262695 7.91775391 37.88262695 7.91775391 38.59179688 6.55859375 C39.73104689 4.37405248 40.86595129 2.18724592 42 0 C47.61 0 53.22 0 59 0 C57.47274401 3.81813998 55.91383201 7.11750127 53.91796875 10.67578125 C53.31533203 11.75150391 52.71269531 12.82722656 52.09179688 13.93554688 C51.46337891 15.04994141 50.83496094 16.16433594 50.1875 17.3125 C49.57068359 18.41529297 48.95386719 19.51808594 48.31835938 20.65429688 C47.71185547 21.73388672 47.10535156 22.81347656 46.48046875 23.92578125 C45.88951416 24.98297363 45.29855957 26.04016602 44.68969727 27.12939453 C43.27251832 29.53702205 41.7555023 31.70663872 40.1015625 33.94921875 C36.72442697 39.26031102 37.21765674 45.40163701 37.1875 51.5 C37.16236328 52.70398438 37.13722656 53.90796875 37.11132812 55.1484375 C37.05279294 58.09861104 37.02345179 61.04933901 37 64 C32.05 64 27.1 64 22 64 C22.06703125 62.45054687 22.1340625 60.90109375 22.203125 59.3046875 C22.4982261 42.0877241 18.22514895 31.28025825 9 17 C7.63080205 14.75588271 6.28241239 12.50060968 4.93945312 10.24072266 C4.168115 8.94977621 3.38614444 7.66510065 2.59179688 6.38818359 C0 2.20860835 0 2.20860835 0 0 Z " fill="#063B41" transform="translate(500,174)"/>
<path d="M0 0 C17.82 0 35.64 0 54 0 C54 4.29 54 8.58 54 13 C47.4 13 40.8 13 34 13 C34 29.83 34 46.66 34 64 C29.05 64 24.1 64 19 64 C19 47.17 19 30.34 19 13 C12.73 13 6.46 13 0 13 C0 8.71 0 4.42 0 0 Z " fill="#083E43" transform="translate(800,174)"/>
<path d="M0 0 C4.63713942 1.68766639 7.96599137 4.31847856 10.5 8.5625 C13.06734597 14.66426395 13.1753954 21.35464929 11.15234375 27.62890625 C8.78482707 32.50037277 6.07719847 35.35503421 1.04296875 37.4140625 C-3.54725326 38.73056977 -7.02220405 38.27446904 -11.5625 37 C-16.15494912 34.3280296 -18.9690871 31.98757761 -21 27 C-21.36946465 24.2050422 -21.59469493 21.67040306 -21.625 18.875 C-21.63587646 18.1941333 -21.64675293 17.5132666 -21.65795898 16.81176758 C-21.51686264 11.79032573 -20.10704601 8.87809603 -17 5 C-11.39104081 0.05877405 -7.39918436 -0.93030681 0 0 Z " fill="#E7E2D6" transform="translate(758,187)"/>
<path d="M0 0 C4.95 0 9.9 0 15 0 C15 21.12 15 42.24 15 64 C10.05 64 5.1 64 0 64 C0 42.88 0 21.76 0 0 Z " fill="#083E42" transform="translate(951,174)"/>
<path d="M0 0 C2.371875 -0.103125 4.74375 -0.20625 7.1875 -0.3125 C7.92508545 -0.35802002 8.6626709 -0.40354004 9.42260742 -0.45043945 C13.29623593 -0.53152148 14.89039371 -0.08421321 17.984375 2.29296875 C20 5 20 5 20.0625 8.625 C18.86635069 12.4245331 18.42716914 13.15630481 15 15 C12.30796435 15.21479008 9.92275886 15.28526276 7.25 15.1875 C4.8575 15.125625 2.465 15.06375 0 15 C0 10.05 0 5.1 0 0 Z " fill="#E9E2D2" transform="translate(665,187)"/>
<path d="M0 0 C12.05122556 -0.60864776 12.05122556 -0.60864776 16.3125 2.125 C18.32483711 5.55342618 18.81252952 7.0998583 18 11 C16.3125 13.875 16.3125 13.875 13 16 C8.57776229 16.4229501 4.46134916 16.22532066 0 16 C0 10.72 0 5.44 0 0 Z " fill="#D9DDD4" transform="translate(595,187)"/>
<path d="M0 0 C5.61 0 11.22 0 17 0 C17 21.12 17 42.24 17 64 C16.67 64 16.34 64 16 64 C16 43.21 16 22.42 16 1 C11.38 1 6.76 1 2 1 C2 13.87 2 26.74 2 40 C-2 36 -2 36 -3 33 C-2.01 33 -1.02 33 0 33 C0 22.11 0 11.22 0 0 Z " fill="#A3BDBB" transform="translate(1035,173)"/>
<path d="M0 0 C8.58 0 17.16 0 26 0 C26 0.33 26 0.66 26 1 C18.08 1 10.16 1 2 1 C2.33 20.14 2.66 39.28 3 59 C2.01 59 1.02 59 0 59 C0 39.53 0 20.06 0 0 Z " fill="#003440" transform="translate(581,175)"/>
<path d="M0 0 C9.9 0 19.8 0 30 0 C30 0.33 30 0.66 30 1 C20.43 1 10.86 1 1 1 C1 3.64 1 6.28 1 9 C1.99 9 2.98 9 4 9 C4 8.01 4 7.02 4 6 C4.66 6 5.32 6 6 6 C6 6.66 6 7.32 6 8 C7.21623047 7.96519531 7.21623047 7.96519531 8.45703125 7.9296875 C15.94081815 7.80771658 22.68049746 8.43850613 30 10 C29.67 13.3 29.34 16.6 29 20 C28.67 20 28.34 20 28 20 C28 17.03 28 14.06 28 11 C18.76 11 9.52 11 0 11 C0 7.37 0 3.74 0 0 Z " fill="#E0E8E1" transform="translate(890,188)"/>
<path d="M0 0 C15.84 0 31.68 0 48 0 C48 0.33 48 0.66 48 1 C33.15 1.33 18.3 1.66 3 2 C2.67 22.46 2.34 42.92 2 64 C1.67 64 1.34 64 1 64 C0.67 42.88 0.34 21.76 0 0 Z " fill="#DFE5DD" transform="translate(872,173)"/>
<path d="M0 0 C4.95 0 9.9 0 15 0 C15 0.66 15 1.32 15 2 C11.04 2 7.08 2 3 2 C2.67 5.63 2.34 9.26 2 13 C6.95 12.67 11.9 12.34 17 12 C17 12.66 17 13.32 17 14 C13.93618406 15.53190797 10.73034134 15.10243613 7.375 15.0625 C4.94125 15.041875 2.5075 15.02125 0 15 C0 10.05 0 5.1 0 0 Z " fill="#C0D1CA" transform="translate(665,187)"/>
<path d="M0 0 C2.31 0 4.62 0 7 0 C6.67 0.66 6.34 1.32 6 2 C4.68 2 3.36 2 2 2 C2.33 10.25 2.66 18.5 3 27 C-3.93 26.505 -3.93 26.505 -11 26 C-11 25.67 -11 25.34 -11 25 C-7.37 25 -3.74 25 0 25 C0 16.75 0 8.5 0 0 Z " fill="#D5E2DF" transform="translate(665,213)"/>
<path d="M0 0 C0.66 0 1.32 0 2 0 C2 23 2 23 1 26 C-3.29 25.67 -7.58 25.34 -12 25 C-12 24.67 -12 24.34 -12 24 C-8.37 24 -4.74 24 -1 24 C-1.020625 22.2675 -1.04125 20.535 -1.0625 18.75 C-1.06999143 12.45720232 -0.62143366 6.25872471 0 0 Z " fill="#E2E8E1" transform="translate(538,214)"/>
<path d="M0 0 C0 0.66 0 1.32 0 2 C1.32 2.33 2.64 2.66 4 3 C1.42640219 4.2867989 0.75013959 3.7004629 -2 3 C-10.30495813 2.35464657 -17.19636848 2.84697355 -24.890625 6.125 C-27 7 -27 7 -29 7 C-29 6.34 -29 5.68 -29 5 C-28.01 5 -27.02 5 -26 5 C-26 4.01 -26 3.02 -26 2 C-20.72830412 1.16909694 -15.5148752 0.71934726 -10.1875 0.4375 C-9.0437793 0.37272461 -9.0437793 0.37272461 -7.87695312 0.30664062 C-2.37202381 0 -2.37202381 0 0 0 Z " fill="#DBE3DD" transform="translate(762,171)"/>
<path d="M0 0 C1.16364187 3.49092562 0.92965003 5.8441996 0.625 9.5 C0.53476562 10.6446875 0.44453125 11.789375 0.3515625 12.96875 C0 16 0 16 -1 19 C-0.34 19.33 0.32 19.66 1 20 C1.66 20.66 2.32 21.32 3 22 C2.625 24.125 2.625 24.125 2 26 C-1.71109475 21.32079357 -2.58683535 17.88443445 -2.375 11.875 C-2.37371094 11.17246094 -2.37242187 10.46992188 -2.37109375 9.74609375 C-2.30783313 6.02777533 -2.04460477 3.15686976 0 0 Z " fill="#CAD6D0" transform="translate(739,194)"/>
<path d="M0 0 C0.66 0.33 1.32 0.66 2 1 C1.625 3.4375 1.625 3.4375 1 6 C0.01 6.495 0.01 6.495 -1 7 C-2.13350534 9.01669827 -2.13350534 9.01669827 -3 11 C-3.66 11 -4.32 11 -5 11 C-5.309375 11.78375 -5.61875 12.5675 -5.9375 13.375 C-7 16 -7 16 -8 18 C-8.66 17.67 -9.32 17.34 -10 17 C-6.7 11.39 -3.4 5.78 0 0 Z " fill="#CED9D6" transform="translate(550,190)"/>
<path d="M0 0 C5.61 0 11.22 0 17 0 C16.34 1.32 15.68 2.64 15 4 C15 3.01 15 2.02 15 1 C10.71 1 6.42 1 2 1 C1.67 2.65 1.34 4.3 1 6 C-1.5625 8.3125 -1.5625 8.3125 -4 10 C-2.8741386 6.46157845 -1.66905241 3.33810482 0 0 Z " fill="#2B5150" transform="translate(542,174)"/>
<path d="M0 0 C1.47968023 2.95936046 0.84835797 4.86760134 0 8 C-1.9375 9.125 -1.9375 9.125 -4 10 C-4.33 10.66 -4.66 11.32 -5 12 C-6.25541557 14.51083114 -7.50063488 14.87125446 -10 16 C-6.99935973 10.36901124 -3.81213639 5.11915459 0 0 Z " fill="#163F44" transform="translate(338,154)"/>
<path d="M0 0 C0.99 0.33 1.98 0.66 3 1 C3.6875 4.3125 3.6875 4.3125 4 8 C2.5625 9.9375 2.5625 9.9375 1 11 C0.34 10.67 -0.32 10.34 -1 10 C-0.67 6.7 -0.34 3.4 0 0 Z " fill="#CDDACC" transform="translate(681,189)"/>
<path d="M0 0 C5.61 0 11.22 0 17 0 C17 0.33 17 0.66 17 1 C12.05 1 7.1 1 2 1 C1.34 2.98 0.68 4.96 0 7 C-1.625 8.875 -1.625 8.875 -3 10 C-3.66 9.67 -4.32 9.34 -5 9 C-3.35 6.03 -1.7 3.06 0 0 Z " fill="#26544D" transform="translate(462,174)"/>
<path d="M0 0 C0.66 0.99 1.32 1.98 2 3 C-2.625 7 -2.625 7 -6 7 C-6.33 7.99 -6.66 8.98 -7 10 C-9.31 9.67 -11.62 9.34 -14 9 C-13.484375 8.7525 -12.96875 8.505 -12.4375 8.25 C-5.63765328 4.92399111 -5.63765328 4.92399111 0 0 Z " fill="#CCD8D1" transform="translate(626,206)"/>
<path d="M0 0 C1.65 0 3.3 0 5 0 C5.33 0.99 5.66 1.98 6 3 C8.97 3 11.94 3 15 3 C15 3.66 15 4.32 15 5 C9.35211947 5.3457886 5.92430871 4.56064053 1 2 C0.67 1.34 0.34 0.68 0 0 Z " fill="#BBD1C8" transform="translate(742,220)"/>
<path d="M0 0 C0 0.33 0 0.66 0 1 C-2.31 1 -4.62 1 -7 1 C-7.4021875 2.11375 -7.4021875 2.11375 -7.8125 3.25 C-8.94229421 5.86636554 -10.20893202 7.80187111 -12 10 C-11.66666667 8.33333333 -11.33333333 6.66666667 -11 5 C-10.855625 4.0925 -10.71125 3.185 -10.5625 2.25 C-10.376875 1.5075 -10.19125 0.765 -10 0 C-6.7169902 -1.6415049 -3.57454967 -0.51888624 0 0 Z " fill="#D3E1D5" transform="translate(469,173)"/>
<path d="M0 0 C5.94 0 11.88 0 18 0 C14.54785147 2.30143236 13.76520676 2.13833854 9.8125 1.625 C8.91144531 1.51414063 8.01039063 1.40328125 7.08203125 1.2890625 C6.39496094 1.19367188 5.70789063 1.09828125 5 1 C5 1.66 5 2.32 5 3 C3.35 2.67 1.7 2.34 0 2 C0 1.34 0 0.68 0 0 Z " fill="#D9EAE7" transform="translate(835,187)"/>
<path d="M0 0 C0.66 0 1.32 0 2 0 C2.33 1.32 2.66 2.64 3 4 C3.66 4 4.32 4 5 4 C7 7 7 7 6.625 9.1875 C6.41875 9.785625 6.2125 10.38375 6 11 C5.38125 10.1646875 5.38125 10.1646875 4.75 9.3125 C2.87743601 6.83804044 0.94660656 4.4164771 -1 2 C-0.67 1.34 -0.34 0.68 0 0 Z " fill="#D3E1D6" transform="translate(695,176)"/>
<path d="M0 0 C4.42857143 5.14285714 4.42857143 5.14285714 5 9 C3.0625 8.6875 3.0625 8.6875 1 8 C0.67 7.01 0.34 6.02 0 5 C-0.66 4.67 -1.32 4.34 -2 4 C-2 3.34 -2 2.68 -2 2 C-1.34 2 -0.68 2 0 2 C0 1.34 0 0.68 0 0 Z " fill="#D7DDCF" transform="translate(516,204)"/>
<path d="M0 0 C0.99 0 1.98 0 3 0 C3.33 1.65 3.66 3.3 4 5 C4.66 5 5.32 5 6 5 C8 8 8 8 7.625 10.1875 C7.41875 10.785625 7.2125 11.38375 7 12 C5.83061933 10.18924982 4.66456267 8.37635257 3.5 6.5625 C2.8503125 5.55316406 2.200625 4.54382813 1.53125 3.50390625 C0 1 0 1 0 0 Z " fill="#CDDBD8" transform="translate(262,196)"/>
<path d="M0 0 C1.70884005 1.62339805 3.37446717 3.29319053 5 5 C5 5.66 5 6.32 5 7 C4.34 7 3.68 7 3 7 C2.67 7.66 2.34 8.32 2 9 C-0.29013653 5.5647952 -0.17842973 4.014669 0 0 Z " fill="#123E41" transform="translate(233,154)"/>
<path d="M0 0 C0 0.99 0 1.98 0 3 C-2.40545638 4.20272819 -3.94996953 4.10071472 -6.625 4.0625 C-7.85089844 4.04896484 -7.85089844 4.04896484 -9.1015625 4.03515625 C-10.04128906 4.01775391 -10.04128906 4.01775391 -11 4 C-7.43904445 2.12498358 -3.8877114 1.04669153 0 0 Z " fill="#C3D3CD" transform="translate(769,235)"/>
<path d="M0 0 C0.99 0.33 1.98 0.66 3 1 C3 1.66 3 2.32 3 3 C3.66 3 4.32 3 5 3 C5 4.32 5 5.64 5 7 C5.66 7.33 6.32 7.66 7 8 C6.01 8 5.02 8 4 8 C0 2.74285714 0 2.74285714 0 0 Z " fill="#C7D8D0" transform="translate(1024,193)"/>
<path d="M0 0 C0.33 0.66 0.66 1.32 1 2 C1.66 2.33 2.32 2.66 3 3 C2.236875 3.0825 1.47375 3.165 0.6875 3.25 C-2.52373261 4.14615794 -3.29374499 5.21611025 -5 8 C-5.33 7.01 -5.66 6.02 -6 5 C-4.02 3.35 -2.04 1.7 0 0 Z " fill="#D8DAD6" transform="translate(746,188)"/>
<path d="M0 0 C2.04119788 1.61594832 4.04072937 3.2856382 6 5 C6 5.66 6 6.32 6 7 C5.01 7.33 4.02 7.66 3 8 C1.02 4.535 1.02 4.535 -1 1 C-0.67 0.67 -0.34 0.34 0 0 Z " fill="#D2D8D1" transform="translate(256,185)"/>
<path d="M0 0 C2.99529289 0.99843096 4.15840327 1.51384442 6 4 C5.6875 6.1875 5.6875 6.1875 5 8 C2.27573689 5.64722731 1.1858237 3.37503669 0 0 Z " fill="#C9DAD8" transform="translate(525,190)"/>
<path d="M0 0 C1.32 0.33 2.64 0.66 4 1 C5.25 4.0625 5.25 4.0625 6 7 C5.01 7.495 5.01 7.495 4 8 C2.68 5.36 1.36 2.72 0 0 Z " fill="#C9D6D6" transform="translate(690,215)"/>
<path d="M0 0 C0.33 0 0.66 0 1 0 C1.36923077 5.53846154 1.36923077 5.53846154 -0.5 7.875 C-1.2425 8.431875 -1.2425 8.431875 -2 9 C-3 6 -3 6 -1.5625 2.8125 C-1.046875 1.884375 -0.53125 0.95625 0 0 Z " fill="#1A3E44" transform="translate(445,205)"/>
<path d="M0 0 C2.15377564 2.62198774 3.40072174 4.64404172 4 8 C3.01 8 2.02 8 1 8 C-0.35439668 5.29120665 -0.06501451 2.99066732 0 0 Z " fill="#C8D1CC" transform="translate(420,203)"/>
<path d="M0 0 C3 1 3 1 4.75 3.3125 C6.14972335 6.32190521 5.95287489 6.98041673 5 10 C4.16121545 8.71186658 3.32913217 7.41936744 2.5 6.125 C2.0359375 5.40570313 1.571875 4.68640625 1.09375 3.9453125 C0 2 0 2 0 0 Z " fill="#CCDBCC" transform="translate(1018,183)"/>
<path d="M0 0 C0.99 0 1.98 0 3 0 C5.29013653 3.4352048 5.17842973 4.985331 5 9 C3.05731159 6.08596738 1.53604696 3.14191424 0 0 Z " fill="#CFD8D7" transform="translate(780,185)"/>
<path d="M0 0 C1.98 0.495 1.98 0.495 4 1 C2.02 3.97 2.02 3.97 0 7 C-0.93423645 3.98968256 -1.04449911 3.13349732 0 0 Z " fill="#D5DFD6" transform="translate(324,169)"/>
<path d="M0 0 C0.33 0.99 0.66 1.98 1 3 C-0.65 4.65 -2.3 6.3 -4 8 C-3.42415568 5.61435923 -2.77772405 3.33317216 -2 1 C-1.34 0.67 -0.68 0.34 0 0 Z " fill="#164145" transform="translate(782,220)"/>
<path d="M0 0 C0.33 0 0.66 0 1 0 C1 1.65 1 3.3 1 5 C0.34 5 -0.32 5 -1 5 C-1.33 5.99 -1.66 6.98 -2 8 C-2.66 7.67 -3.32 7.34 -4 7 C-2.68 4.69 -1.36 2.38 0 0 Z " fill="#D2DFD9" transform="translate(463,202)"/>
<path d="M0 0 C4.52346473 2.26173236 5.05828666 3.53405933 7 8 C6.01 8 5.02 8 4 8 C2.68 5.36 1.36 2.72 0 0 Z " fill="#D2DED1" transform="translate(433,198)"/>
</svg>
