<?xml version="1.0" encoding="UTF-8"?>
<svg version="1.1" xmlns="http://www.w3.org/2000/svg" width="480" height="166">
<path d="M0 0 C158.4 0 316.8 0 480 0 C480 54.78 480 109.56 480 166 C321.6 166 163.2 166 0 166 C0 111.22 0 56.44 0 0 Z " fill="#FDFDFD" transform="translate(0,0)"/>
<path d="M0 0 C0.33 2.31 0.66 4.62 1 7 C1.55429687 6.57847656 2.10859375 6.15695313 2.6796875 5.72265625 C3.76636719 4.90087891 3.76636719 4.90087891 4.875 4.0625 C5.59429687 3.51722656 6.31359375 2.97195312 7.0546875 2.41015625 C10.44091039 -0.04451536 12.64971081 -0.18840509 16.8125 -0.25 C17.85019531 -0.27578125 18.88789063 -0.3015625 19.95703125 -0.328125 C23.44960798 0.04848148 25.23421061 0.85687523 28 3 C30.71405947 6.80930001 30.33213358 11.17966807 30.37890625 15.66796875 C30.39590073 16.50338699 30.4128952 17.33880524 30.43040466 18.19953918 C30.48344926 20.8621165 30.52381087 23.52467841 30.5625 26.1875 C30.60639006 28.86095622 30.65301929 31.53429034 30.70530701 34.20759583 C30.73733395 35.87017131 30.76420211 37.53285536 30.78553772 39.19560242 C30.50186191 42.90208649 30.50186191 42.90208649 32 46 C33.99958364 46.04080783 36.00045254 46.04254356 38 46 C39.69645913 40.91062262 39.2646986 35.50284818 39.29516602 30.17602539 C39.30670816 28.76869673 39.32719564 27.36141261 39.35668945 25.9543457 C39.39935657 23.91848076 39.41552956 21.88391267 39.42578125 19.84765625 C39.44036377 18.63086182 39.45494629 17.41406738 39.4699707 16.16040039 C38.90992582 12.3942804 37.99842291 11.26804219 35 9 C34.01 8.67 33.02 8.34 32 8 C32 7.34 32 6.68 32 6 C35.22867533 5.18553916 38.4580241 4.37378011 41.6875 3.5625 C42.59951172 3.33240234 43.51152344 3.10230469 44.45117188 2.86523438 C45.33740234 2.64287109 46.22363281 2.42050781 47.13671875 2.19140625 C47.94842529 1.98717041 48.76013184 1.78293457 49.59643555 1.57250977 C52.05437138 0.98704917 54.51962771 0.48063245 57 0 C57.0154612 0.82019119 57.0154612 0.82019119 57.03123474 1.6569519 C57.13919328 7.33441385 57.25379974 13.01171364 57.37231445 18.68896484 C57.41569752 20.80937313 57.45737007 22.92981712 57.49731445 25.05029297 C57.55493543 28.09353408 57.61865325 31.1365949 57.68359375 34.1796875 C57.70030624 35.13181122 57.71701874 36.08393494 57.73423767 37.06491089 C57.7641555 38.38605392 57.7641555 38.38605392 57.79467773 39.73388672 C57.81799416 40.89970779 57.81799416 40.89970779 57.84178162 42.08908081 C57.88783251 44.08556935 57.88783251 44.08556935 59 46 C61.52733235 46.65555119 61.52733235 46.65555119 64 47 C64 47.66 64 48.32 64 49 C45.52 49 27.04 49 8 49 C8 48.34 8 47.68 8 47 C9.32 46.34 10.64 45.68 12 45 C12.0493651 40.05209823 12.08570269 35.10433917 12.10986328 30.15625 C12.11993317 28.47230534 12.13358988 26.78837821 12.15087891 25.10449219 C12.17508426 22.68680499 12.18647296 20.26934857 12.1953125 17.8515625 C12.20563507 17.0963028 12.21595764 16.34104309 12.22659302 15.56289673 C12.22699318 13.7070602 12.12222716 11.8518072 12 10 C10.12226736 7.69253586 10.12226736 7.69253586 7.0625 7.75 C3.82717213 7.76482246 3.82717213 7.76482246 1 10 C0.73313787 12.69540315 0.65181927 15.15847464 0.70703125 17.8515625 C0.71339851 19.01261002 0.71339851 19.01261002 0.71989441 20.19711304 C0.73671002 22.67342677 0.77436605 25.14893158 0.8125 27.625 C0.82754318 29.30207159 0.84123222 30.97915592 0.85351562 32.65625 C0.88662279 36.77114581 0.93842363 40.88543569 1 45 C2.32 45.66 3.64 46.32 5 47 C5 47.66 5 48.32 5 49 C-4.9 49 -14.8 49 -25 49 C-25 48.34 -25 47.68 -25 47 C-24.030625 46.87625 -23.06125 46.7525 -22.0625 46.625 C-21.051875 46.41875 -20.04125 46.2125 -19 46 C-16.74685407 41.49370813 -17.73144142 35.35455606 -17.70483398 30.34204102 C-17.68759066 28.07442179 -17.6436979 25.80824967 -17.59960938 23.54101562 C-17.5894848 22.10157322 -17.58096796 20.66211843 -17.57421875 19.22265625 C-17.55963623 17.91047119 -17.54505371 16.59828613 -17.5300293 15.24633789 C-17.68157972 11.95684428 -17.68157972 11.95684428 -19.83911133 10.11108398 C-22.08453039 8.88705784 -22.08453039 8.88705784 -25 8 C-25 7.34 -25 6.68 -25 6 C-23.98679687 5.73445313 -22.97359375 5.46890625 -21.9296875 5.1953125 C-20.57809823 4.83864311 -19.22653722 4.48186657 -17.875 4.125 C-17.20984375 3.95097656 -16.5446875 3.77695313 -15.859375 3.59765625 C-12.77462113 2.78110376 -9.77363113 1.92090726 -6.7578125 0.8671875 C-4 0 -4 0 0 0 Z " fill="#0A0A0A" transform="translate(321,68)"/>
<path d="M0 0 C6.0535244 3.80105021 11.290037 7.81140554 13 15 C13.90888026 22.89152767 14.15398698 30.34484623 9.61328125 37.13671875 C4.17435351 43.41848275 -2.58032651 47.32441743 -10.8203125 48.3515625 C-19.28409306 48.76284595 -25.72769132 46.85313877 -32.0703125 41.1328125 C-37.98827039 34.76915067 -40.68620722 28.58136331 -40.41015625 19.84375 C-39.37032425 12.63424816 -35.72045239 6.63706733 -29.9375 2.25 C-20.59748265 -3.77581765 -10.07974115 -5.61756325 0 0 Z " fill="#0B0B0B" transform="translate(286,70)"/>
<path d="M0 0 C0.33 2.31 0.66 4.62 1 7 C1.55429688 6.57847656 2.10859375 6.15695313 2.6796875 5.72265625 C3.76636719 4.90087891 3.76636719 4.90087891 4.875 4.0625 C5.59429687 3.51722656 6.31359375 2.97195312 7.0546875 2.41015625 C12.07217361 -1.22701742 18.02461768 -0.68120839 24 0 C27.0597372 1.65658499 28.4495788 3.89915759 30 7 C30.15706331 9.84208026 30.2584957 12.66337307 30.31640625 15.5078125 C30.33718735 16.34843231 30.35796844 17.18905212 30.37937927 18.05514526 C30.44485439 20.74501235 30.5037502 23.43497843 30.5625 26.125 C30.60568716 27.94662489 30.64930152 29.76823971 30.69335938 31.58984375 C30.80053368 36.05979394 30.90180685 40.52984386 31 45 C32.32 45.66 33.64 46.32 35 47 C35 47.66 35 48.32 35 49 C26.09 49 17.18 49 8 49 C8 48.34 8 47.68 8 47 C9.32 46.34 10.64 45.68 12 45 C12.0493651 40.05209823 12.08570269 35.10433917 12.10986328 30.15625 C12.11993317 28.47230534 12.13358988 26.78837821 12.15087891 25.10449219 C12.17508426 22.68680499 12.18647296 20.26934857 12.1953125 17.8515625 C12.20563507 17.0963028 12.21595764 16.34104309 12.22659302 15.56289673 C12.22699318 13.7070602 12.12222716 11.8518072 12 10 C10.12226736 7.69253586 10.12226736 7.69253586 7.0625 7.75 C3.82717213 7.76482246 3.82717213 7.76482246 1 10 C0.73313787 12.69540315 0.65181927 15.15847464 0.70703125 17.8515625 C0.71339851 19.01261002 0.71339851 19.01261002 0.71989441 20.19711304 C0.73671002 22.67342677 0.77436605 25.14893158 0.8125 27.625 C0.82754318 29.30207159 0.84123222 30.97915592 0.85351562 32.65625 C0.88662279 36.77114581 0.93842363 40.88543569 1 45 C2.32 45.66 3.64 46.32 5 47 C5 47.66 5 48.32 5 49 C-4.57 49 -14.14 49 -24 49 C-24 48.34 -24 47.68 -24 47 C-22.02 46.34 -20.04 45.68 -18 45 C-17.9011197 40.3552879 -17.8285285 35.71118827 -17.78027344 31.06567383 C-17.76015814 29.48548715 -17.73286196 27.90537491 -17.69824219 26.32543945 C-17.64971657 24.05401252 -17.62703191 21.78356942 -17.609375 19.51171875 C-17.58872986 18.80536789 -17.56808472 18.09901703 -17.54681396 17.3712616 C-17.54534096 14.15118849 -17.55214895 12.46493415 -19.83691406 10.09301758 C-22.08720415 8.89003623 -22.08720415 8.89003623 -25 8 C-25 7.34 -25 6.68 -25 6 C-23.98679688 5.73445313 -22.97359375 5.46890625 -21.9296875 5.1953125 C-20.57809823 4.83864311 -19.22653722 4.48186657 -17.875 4.125 C-17.20984375 3.95097656 -16.5446875 3.77695313 -15.859375 3.59765625 C-12.77462113 2.78110376 -9.77363113 1.92090726 -6.7578125 0.8671875 C-4 0 -4 0 0 0 Z " fill="#080808" transform="translate(74,68)"/>
<path d="M0 0 C0.029729 1.748573 0.029729 1.748573 0.06005859 3.5324707 C0.13608959 7.85446905 0.22481076 12.17612962 0.31738281 16.49780273 C0.35568294 18.36882868 0.390534 20.23992853 0.421875 22.11108398 C0.46750324 24.79958519 0.52550088 27.48757723 0.5859375 30.17578125 C0.59748871 31.01337479 0.60903992 31.85096832 0.62094116 32.71394348 C0.72046457 36.62373037 0.7847302 38.6770953 3 42 C3.99 42.66 4.98 43.32 6 44 C3.1071271 45.00935129 0.21121485 46.00768744 -2.6875 47 C-3.50412109 47.28617188 -4.32074219 47.57234375 -5.16210938 47.8671875 C-12.67644333 50.42266949 -12.67644333 50.42266949 -17 50 C-17 47.69 -17 45.38 -17 43 C-17.60328125 43.40992188 -18.2065625 43.81984375 -18.828125 44.2421875 C-19.62734375 44.78101563 -20.4265625 45.31984375 -21.25 45.875 C-22.03890625 46.40867188 -22.8278125 46.94234375 -23.640625 47.4921875 C-29.12883714 50.99955486 -33.46960311 52.02840896 -40 51 C-43.62160551 49.11299112 -45.68934422 46.93196733 -47 43 C-47.11792969 40.37852895 -47.18508694 37.77867356 -47.2109375 35.15625 C-47.23899485 33.5846248 -47.26765923 32.01301034 -47.296875 30.44140625 C-47.33820583 27.96598484 -47.37509798 25.49076649 -47.40136719 23.01513672 C-47.42893052 20.62425537 -47.47478526 18.23428263 -47.5234375 15.84375 C-47.52669037 15.10306274 -47.52994324 14.36237549 -47.53329468 13.59924316 C-47.60099537 9.61526959 -47.60099537 9.61526959 -49.34228516 6.13476562 C-50.88657545 5.0776432 -52.44285609 4.03809594 -54 3 C-51.31306278 2.66148822 -48.62559711 2.329064 -45.9375 2 C-44.80924805 1.85691406 -44.80924805 1.85691406 -43.65820312 1.7109375 C-42.54155273 1.57558594 -42.54155273 1.57558594 -41.40234375 1.4375 C-40.72679443 1.35371094 -40.05124512 1.26992187 -39.35522461 1.18359375 C-36.23331684 0.94023575 -33.12987693 0.97346156 -30 1 C-29.98018066 2.16571533 -29.96036133 3.33143066 -29.93994141 4.5324707 C-29.86391041 8.85446905 -29.77518924 13.17612962 -29.68261719 17.49780273 C-29.64431706 19.36882868 -29.609466 21.23992853 -29.578125 23.11108398 C-29.53249676 25.79958519 -29.47449912 28.48757723 -29.4140625 31.17578125 C-29.40251129 32.01337479 -29.39096008 32.85096832 -29.37905884 33.71394348 C-29.27953543 37.62373037 -29.2152698 39.6770953 -27 43 C-23.53058454 42.54177532 -20.32604951 42.10868317 -17 41 C-17.04419246 36.51522762 -17.11406369 32.03180495 -17.20751953 27.54785156 C-17.23570535 26.02322569 -17.25693189 24.49845434 -17.27099609 22.97363281 C-17.29246049 20.77854064 -17.33912169 18.58519289 -17.390625 16.390625 C-17.41157227 15.07094727 -17.43251953 13.75126953 -17.45410156 12.39160156 C-18.08327649 8.48261312 -18.91912048 7.38379728 -22 5 C-22.99 4.34 -23.98 3.68 -25 3 C-21.39628337 2.49672003 -17.79195803 1.99794006 -14.1875 1.5 C-13.16333984 1.35691406 -12.13917969 1.21382813 -11.08398438 1.06640625 C-9.60961914 0.86337891 -9.60961914 0.86337891 -8.10546875 0.65625 C-6.74651489 0.46772461 -6.74651489 0.46772461 -5.36010742 0.27539062 C-3 0 -3 0 0 0 Z " fill="#060606" transform="translate(209,67)"/>
<path d="M0 0 C0.94875 0.556875 1.8975 1.11375 2.875 1.6875 C6.23790867 5.34713591 9 10.92774116 9 16 C-1.56 16 -12.12 16 -23 16 C-21.32681797 24.47060771 -21.32681797 24.47060771 -17 31 C-12.34310058 33.92316197 -7.3118173 33.73897183 -2 33 C1.6789369 31.42915234 5.16830022 29.66339956 7 26 C7.66 26 8.32 26 9 26 C6.84188322 34.63246711 1.42985884 40.45953071 -6 45 C-13.51032864 47.42068444 -21.59523085 46.59427611 -28.70703125 43.39453125 C-34.77829851 39.7021251 -39.10429905 33.80222105 -41 27 C-41.85117052 19.6263767 -41.75255595 13.33115292 -37.609375 7 C-27.24706791 -5.87743018 -14.07238262 -8.46811796 0 0 Z " fill="#070707" transform="translate(149,72)"/>
<path d="M0 0 C4.25095667 2.452475 8.99736873 5.36973746 11.25 9.875 C11.91112793 14.68234452 11.9411126 17.87898478 9.125 21.9375 C6.25 23.875 6.25 23.875 3.25 24.5625 C-1.10321372 23.56488852 -2.40945491 21.59233632 -4.75 17.875 C-5.125 14.5625 -5.125 14.5625 -4.75 11.875 C-4.42 11.545 -4.09 11.215 -3.75 10.875 C-3.67820036 9.35571962 -3.66607993 7.83332518 -3.6875 6.3125 C-3.69652344 5.48621094 -3.70554687 4.65992187 -3.71484375 3.80859375 C-3.72644531 3.17050781 -3.73804688 2.53242187 -3.75 1.875 C-8.86620081 1.15759133 -8.86620081 1.15759133 -13.359375 3.10546875 C-17.35494122 7.86489321 -17.92283905 11.64965542 -18 17.6875 C-18.02578125 18.89019531 -18.0515625 20.09289062 -18.078125 21.33203125 C-17.53739464 27.17063166 -15.12387807 31.06549329 -10.75 34.875 C-6.56977962 36.96511019 -1.30070647 36.31726815 3.25 35.875 C5.97277362 34.83142823 7.83408491 33.57128081 10.25 31.875 C11.24 31.545 12.23 31.215 13.25 30.875 C10.49339543 38.53673917 5.46906625 45.02483133 -1.75 48.875 C-8.07258308 50.87375207 -15.956462 51.08746698 -22.0625 48.375 C-28.23096692 44.72532374 -33.1548875 38.93812353 -35.3125 32.07421875 C-36.89661827 24.11119564 -36.21183826 17.67696322 -31.75 10.875 C-31.21375 10.00875 -30.6775 9.1425 -30.125 8.25 C-21.79953318 -0.07546682 -11.36817635 -3.41045291 0 0 Z " fill="#090909" transform="translate(417.75,68.125)"/>
<path d="M0 0 C0.33 0 0.66 0 1 0 C1 6.27 1 12.54 1 19 C4.96 19 8.92 19 13 19 C12.34 20.32 11.68 21.64 11 23 C7.7 23 4.4 23 1 23 C1.06894023 27.62699403 1.15693558 32.25308978 1.26245117 36.87939453 C1.29566372 38.45253522 1.32370717 40.02579401 1.34643555 41.59912109 C1.38005028 43.86346672 1.43236624 46.12673365 1.48828125 48.390625 C1.49467117 49.09181458 1.5010611 49.79300415 1.50764465 50.51544189 C1.62953966 54.58216439 2.02878759 57.11532776 5 60 C7.26300895 60.6921369 7.26300895 60.6921369 9.6875 60.75 C10.89986328 60.83507812 10.89986328 60.83507812 12.13671875 60.921875 C13.05904297 60.96054688 13.05904297 60.96054688 14 61 C9.51422753 65.78756756 4.46348574 68.23169063 -2.125 68.5 C-6.77456611 68.27859209 -9.55100674 67.28074968 -13 64 C-15.68071507 58.86538427 -16.41996616 54.68241934 -16.29296875 48.87890625 C-16.28872391 48.13414536 -16.28447906 47.38938446 -16.28010559 46.62205505 C-16.26345724 44.26848527 -16.22583375 41.91580621 -16.1875 39.5625 C-16.17243515 37.95639267 -16.15874991 36.35027177 -16.14648438 34.74414062 C-16.11359952 30.82908953 -16.06191626 26.91469521 -16 23 C-19.3 23 -22.6 23 -26 23 C-22.86965789 20.39138158 -19.63084462 18.07692864 -16.25 15.8125 C-9.98498852 11.47013426 -4.24588064 6.36882096 0 0 Z " fill="#060606" transform="translate(236,50)"/>
<path d="M0 0 C1.32 0 2.64 0 4 0 C4.01981934 1.31194336 4.03963867 2.62388672 4.06005859 3.97558594 C4.1361375 8.84361955 4.22485164 13.71135516 4.31738281 18.57910156 C4.35566306 20.68581254 4.3905176 22.79258867 4.421875 24.89941406 C4.46754598 27.92797121 4.52553745 30.95608022 4.5859375 33.984375 C4.59748871 34.92617615 4.60903992 35.86797729 4.62094116 36.83831787 C4.64081085 37.71892883 4.66068054 38.59953979 4.68115234 39.50683594 C4.69447601 40.27960876 4.70779968 41.05238159 4.7215271 41.84857178 C4.93398225 44.41579819 4.93398225 44.41579819 7 48 C-0.92 48 -8.84 48 -17 48 C-16.01 46.35 -15.02 44.7 -14 43 C-13.46421444 38.67972309 -13.52671233 34.37627552 -13.55395508 30.02514648 C-13.56249142 27.93959661 -13.53363388 25.85676587 -13.50195312 23.77148438 C-13.50259766 22.45341797 -13.50324219 21.13535156 -13.50390625 19.77734375 C-13.50112671 17.97124634 -13.50112671 17.97124634 -13.49829102 16.12866211 C-14.09608566 12.40080887 -15.03062677 11.25669676 -18 9 C-18.99 8.67 -19.98 8.34 -21 8 C-21 7.34 -21 6.68 -21 6 C-20.39937744 5.85377197 -19.79875488 5.70754395 -19.17993164 5.55688477 C-16.47321322 4.89574368 -13.76785515 4.22919648 -11.0625 3.5625 C-10.11697266 3.33240234 -9.17144531 3.10230469 -8.19726562 2.86523438 C-6.84858398 2.53168945 -6.84858398 2.53168945 -5.47265625 2.19140625 C-4.64000244 1.98717041 -3.80734863 1.78293457 -2.94946289 1.57250977 C-1.01329716 1.17303358 -1.01329716 1.17303358 0 0 Z " fill="#040404" transform="translate(374,68)"/>
<path d="M0 0 C7.38196172 -0.7450952 12.0929546 -0.19630961 18.0625 4.35546875 C23.60493964 9.05983788 27.48436227 13.0940442 28.46875 20.55078125 C28.534785 28.49974472 28.37903027 34.81928733 23 41 C18.44989815 45.2381997 13.56116038 48.84172621 7.1875 49.125 C6.465625 49.08375 5.74375 49.0425 5 49 C5.30711914 48.43474609 5.61423828 47.86949219 5.93066406 47.28710938 C9.2390896 40.21100653 9.31799269 32.17184136 9.25 24.5 C9.25773437 23.62730469 9.26546875 22.75460938 9.2734375 21.85546875 C9.48044051 11.11792866 9.48044051 11.11792866 5 2 C2.42938689 1.35232207 2.42938689 1.35232207 0 1 C0 0.67 0 0.34 0 0 Z " fill="#060606" transform="translate(271,68)"/>
<path d="M0 0 C3.125 0.4375 3.125 0.4375 5.4375 2.4375 C8.98669677 8.74718314 8.30736805 16.73040818 8.3125 23.8125 C8.32474609 24.69421875 8.33699219 25.5759375 8.34960938 26.484375 C8.38267601 41.51867359 8.38267601 41.51867359 4.77026367 46.18896484 C3.125 47.4375 3.125 47.4375 -0.375 47.9375 C-3.875 47.4375 -3.875 47.4375 -5.75 45.3125 C-8.54738447 38.16362859 -8.09268146 30.55849771 -8.125 23 C-8.145625 21.79794922 -8.16625 20.59589844 -8.1875 19.35742188 C-8.21574789 12.95574492 -8.1178549 8.03378601 -4.875 2.4375 C-2.875 0.4375 -2.875 0.4375 0 0 Z " fill="#F7F7F7" transform="translate(272.875,68.5625)"/>
<path d="M0 0 C1.59708636 0.89248943 3.1823957 1.80668724 4.75 2.75 C5.69875 3.306875 6.6475 3.86375 7.625 4.4375 C10.98790867 8.09713591 13.75 13.67774116 13.75 18.75 C3.19 18.75 -7.37 18.75 -18.25 18.75 C-18.25 6.375 -18.25 6.375 -14.25 -0.25 C-15.24 -0.58 -16.23 -0.91 -17.25 -1.25 C-11.0453536 -3.31821547 -5.88037286 -2.86547317 0 0 Z " fill="#0D0D0D" transform="translate(144.25,69.25)"/>
<path d="M0 0 C3.58535252 0.91767951 6.05695033 2.38684157 7.96875 5.50390625 C8.82281516 9.0240397 8.82281516 11.9837728 7.96875 15.50390625 C6.23548512 18.3298816 5.06359645 18.8459528 1.96875 20.50390625 C-1.12550163 21.2277078 -2.74244054 21.0259395 -6.03125 20.50390625 C-9.91385873 17.36477579 -11.80357437 15.19521091 -12.46875 10.25390625 C-11.96448399 5.93162614 -11.07135166 4.41762752 -7.875 1.61328125 C-5.18945257 -0.00259898 -3.09838379 -0.28004623 0 0 Z " fill="#070707" transform="translate(370.03125,43.49609375)"/>
<path d="M0 0 C9.88620308 -0.48268984 16.0979367 0.97194871 23.6171875 7.59765625 C26.00084805 10.01498433 26.23110504 12.0195192 26.375 15.3125 C26.32748065 18.9952493 26.07687286 19.88921265 23.875 23.0625 C21 25 21 25 18 25.6875 C13.64678628 24.68988852 12.34054509 22.71733632 10 19 C9.625 15.6875 9.625 15.6875 10 13 C10.33 12.67 10.66 12.34 11 12 C11.07179964 10.48071962 11.08392007 8.95832518 11.0625 7.4375 C11.041875 5.973125 11.02125 4.50875 11 3 C7.37 2.34 3.74 1.68 0 1 C0 0.67 0 0.34 0 0 Z " fill="#0A0A0A" transform="translate(403,67)"/>
<path d="M0 0 C3.0625 0.375 3.0625 0.375 4.7421875 1.9453125 C7.41258649 6.85947869 6.21308026 12.95411058 6.0625 18.375 C1.4425 18.375 -3.1775 18.375 -7.9375 18.375 C-8.37194227 7.65875734 -8.37194227 7.65875734 -4.9375 2.375 C-2.9375 0.375 -2.9375 0.375 0 0 Z " fill="#F3F3F3" transform="translate(133.9375,68.625)"/>
<path d="M0 0 C0.66 0.33 1.32 0.66 2 1 C1.34 1.66 0.68 2.32 0 3 C0.66 3.66 1.32 4.32 2 5 C0.88625 5.309375 -0.2275 5.61875 -1.375 5.9375 C-4.7945155 6.82326483 -4.7945155 6.82326483 -7 8 C-5.50902342 4.2047869 -3.24299151 2.38957269 0 0 Z " fill="#2B2B2B" transform="translate(328,70)"/>
<path d="M0 0 C0.66 0.33 1.32 0.66 2 1 C1.34 1.66 0.68 2.32 0 3 C0.66 3.66 1.32 4.32 2 5 C0.88625 5.309375 -0.2275 5.61875 -1.375 5.9375 C-4.7945155 6.82326483 -4.7945155 6.82326483 -7 8 C-5.50902342 4.2047869 -3.24299151 2.38957269 0 0 Z " fill="#2C2C2C" transform="translate(81,70)"/>
<path d="M0 0 C1.74965358 -0.05429959 3.49979787 -0.09292823 5.25 -0.125 C6.22453125 -0.14820312 7.1990625 -0.17140625 8.203125 -0.1953125 C11.0196498 0.00137219 12.60949036 0.55431084 15 2 C9.53891111 3.4002792 5.30723432 2.42705634 0 1 C0 0.67 0 0.34 0 0 Z " fill="#5F5F5F" transform="translate(403,67)"/>
<path d="M0 0 C1.21236328 0.01353516 1.21236328 0.01353516 2.44921875 0.02734375 C3.37154297 0.04474609 3.37154297 0.04474609 4.3125 0.0625 C1.07930553 2.21796298 -0.85646958 2.74324747 -4.6875 3.0625 C-5.6775 2.4025 -6.6675 1.7425 -7.6875 1.0625 C-4.80538698 0.10179566 -2.98899956 -0.04331883 0 0 Z " fill="#525252" transform="translate(134.6875,66.9375)"/>
</svg>
